<svg width="147" height="147" viewBox="0 0 147 147" fill="none" xmlns="http://www.w3.org/2000/svg">
    <g opacity=".2" fill="#000">
        <path d="M39.599 105.832a1.646 1.646 0 0 0-1.154-.461h-1.446l.149.255v3.119h1.011c.147 0 .294-.018.436-.054a1.6 1.6 0 0 0 .404-.164 3.857 3.857 0 0 0 .278-.163c.244-.142.447-.343.59-.586a1.619 1.619 0 0 0 .083-1.436 1.597 1.597 0 0 0-.352-.509m-.191 1.609a1.282 1.282 0 0 1-.263.545.883.883 0 0 1-.228.2.62.62 0 0 1-.249.091 2.135 2.135 0 0 1-.265.017h-.625v-2.467h.353a1.304 1.304 0 0 1 1.307 1.31c0 .101-.011.201-.033.3M44.486 105.825l.177-.454H42.41l.145.254v3.119h1.932l.177-.454H43.18v-1.06h1.31l.176-.454h-1.483v-.95l1.304-.001zM49.241 105.66a1.04 1.04 0 0 0-.734-.286h-1.41l.144.254v3.119h.625v-1.2h.243a1.467 1.467 0 0 0 .445-.05.925.925 0 0 0 .218-.1l.137-.081c.045-.025.09-.053.136-.081.149-.088.274-.212.364-.359a.928.928 0 0 0 .134-.494 1.004 1.004 0 0 0-.309-.723m-.388 1.163a.467.467 0 0 1-.179.223.19.19 0 0 1-.1.036.957.957 0 0 1-.107.006h-.6v-1.266h.324a.657.657 0 0 1 .276.058.719.719 0 0 1 .385.942l.001.001zM52.492 105.369l.111.256-1.381 3.118h.735l-.1-.255.3-.672h1.409l.413.926h.681l-1.494-3.373h-.674zm-.13 1.994.509-1.141.509 1.141h-1.018zM58.195 107.243l.158-.089a.943.943 0 0 0 .473-.825.9.9 0 0 0-.079-.382.945.945 0 0 0-.528-.5 1.01 1.01 0 0 0-.384-.073h-1.418l.145.255v3.119h.625v-1.313h.2l.982 1.309h.773l-1.116-1.459a.352.352 0 0 0 .171-.041m-.3-.265a.474.474 0 0 1-.092.009h-.607v-1.163h.328a.652.652 0 0 1 .613.408.653.653 0 0 1-.003.506.635.635 0 0 1-.065.119.369.369 0 0 1-.086.088.215.215 0 0 1-.088.032M61.174 105.834h.935v2.908h.626v-2.908h.76l.177-.463H61.35l-.176.463zM67.662 106.969l-1.172-1.6h-.764l.208.3v3.076h.5v-2.376l1 1.367h.3l1-1.371v2.381h.625v-3.377h-.529l-1.168 1.6zM73.949 105.825l.176-.454h-2.254l.145.254v3.119h1.933l.176-.454h-1.482v-1.061h1.309l.176-.454h-1.483v-.95h1.304zM78.896 105.427a2.292 2.292 0 0 1 .095.176.178.178 0 0 1 .018.055v2.09l-1.741-2.373h-.769l.209.3v3.074h.5v-2.38l1.745 2.378h.556v-3.378h-.644c.007.009.018.028.035.056M81.774 105.834h1.07v2.908h.625v-2.908h.759l.176-.463h-2.32l-.31.463zM90.386 106.978a1.706 1.706 0 0 0-.377-.153 3.127 3.127 0 0 1-.377-.127.893.893 0 0 1-.291-.188.461.461 0 0 1-.116-.338.518.518 0 0 1 .168-.384.477.477 0 0 1 .167-.033c.17 0 .337.037.491.108.154.07.3.156.436.258l.208-.543a1.561 1.561 0 0 0-.424-.206 1.536 1.536 0 0 0-.466-.073.987.987 0 0 0-.487.124 1.782 1.782 0 0 1-.145.081c-.053.026-.094.053-.14.08a.848.848 0 0 0-.328.327.9.9 0 0 0-.116.451c-.01.157.03.312.116.444a.852.852 0 0 0 .286.249c.12.063.246.111.376.145.128.033.254.075.376.126a.845.845 0 0 1 .286.2.52.52 0 0 1 .116.359.562.562 0 0 1-.191.43.614.614 0 0 1-.208.036 1.221 1.221 0 0 1-.529-.11 2.868 2.868 0 0 1-.463-.274l-.213.547c.138.101.293.176.457.222.163.046.331.069.5.069.187.002.371-.046.534-.138l.278-.158a.933.933 0 0 0 .477-.816.799.799 0 0 0-.116-.458.861.861 0 0 0-.291-.265M92.783 105.834h.936v2.908h.626v-2.908h.76l.176-.463h-2.327l-.171.463zM100.063 105.784a1.656 1.656 0 0 0-.54-.353 1.784 1.784 0 0 0-1.527.1c-.047.025-.092.052-.139.079l-.139.084a1.67 1.67 0 0 0 .205 2.996c.21.085.436.128.663.127.15 0 .3-.018.447-.054.147-.036.288-.093.419-.169.046-.024.093-.05.139-.078l.14-.083c.254-.148.465-.36.612-.614a1.686 1.686 0 0 0-.276-2.036m-.177 1.678a1.385 1.385 0 0 1-.269.584.883.883 0 0 1-.241.21.605.605 0 0 1-.25.09 1.943 1.943 0 0 1-.264.018 1.28 1.28 0 0 1-.535-.111 1.342 1.342 0 0 1-.7-.74 1.46 1.46 0 0 1-.1-.534c0-.106.01-.213.032-.317a1.386 1.386 0 0 1 .269-.581.917.917 0 0 1 .241-.209.643.643 0 0 1 .25-.093c.088-.012.176-.018.265-.018.184-.003.367.035.535.111a1.325 1.325 0 0 1 .7.739c.067.17.101.352.1.535 0 .106-.012.212-.033.316zM104.532 107.243l.158-.089a.937.937 0 0 0 .472-.825.914.914 0 0 0-.291-.682 1.013 1.013 0 0 0-.7-.273h-1.418l.145.255v3.119h.625v-1.313h.2l.983 1.309h.773l-1.125-1.459a.363.363 0 0 0 .171-.041m-.3-.265a.47.47 0 0 1-.092.009h-.612v-1.163h.334a.661.661 0 0 1 .26.05.652.652 0 0 1 .211.145.663.663 0 0 1 .179.592.59.59 0 0 1-.104.248.342.342 0 0 1-.086.088.218.218 0 0 1-.088.032M109.534 107.229l.176-.454h-1.482v-.95h1.309l.176-.454h-2.254l.145.254v3.118h1.932l.176-.454h-1.484v-1.061l1.306.001zM109.708 101.261V90.168h-2.531l.486.838v10.252l2.045.003zM79.553 91.023v6.949l-5.761-7.8h-2.377l.593.838v10.251h1.626v-8.093l5.722 8.093h1.821V90.168h-2.108l.484.855zM68.812 99.539v-9.371h-2.53l.483.837v8.412a3.314 3.314 0 0 1-1.776.519 2.618 2.618 0 0 1-2.58-2.637v-7.131h-2.536l.486.837v6.889a3.62 3.62 0 0 0 3.719 3.6 6.506 6.506 0 0 0 3.673-1.249c.369-.21.723-.444 1.062-.7M52.223 101.261h2.05v-4.48l3.99-6.617h-2.7l.331.838-2.4 4.008-2.865-4.845h-2.444l4.037 6.675.001 4.421zM44.149 91.006v3.734h-4.615v-4.573h-2.535l.486.839v10.252h2.05v-4.983h4.615v4.983h2.049v-11.09h-2.535l.485.838zM88.513 90.169h-4.719l.486.838v10.252h3.308c.963.01 1.91-.237 2.746-.716.3-.168.608-.351.912-.533a5.281 5.281 0 0 0-2.733-9.844m1.564 9.234a3.07 3.07 0 0 1-1.685.35H86.33v-8.072h1.152a4.273 4.273 0 0 1 4.3 4.313 4.013 4.013 0 0 1-1.7 3.413M105.59 101.261l-4.886-11.093h-2.213l.364.838-4.524 10.252h2.414l-.319-.837.971-2.21h4.615l1.35 3.047 2.228.003zm-7.527-4.541 1.654-3.748 1.652 3.748h-3.306zM63.056 64.525v-1.568h-5.859v8.06h1.773v-3.156h3.811v-1.637h-3.81v-1.7l4.085.001zM64.656 54.135c0-2.787-1.949-4.064-4.792-4.064h-2.666v8.079h2.908c2.5 0 4.552-1.5 4.552-4.015m-4.757 2.45h-.927v-4.942h1.054c1.535 0 2.773.849 2.773 2.4 0 1.755-1.149 2.545-2.9 2.545M88.915 64.525v-1.568h-5.579v8.06h5.578v-1.572h-3.8v-1.658h3.494v-1.563h-3.496v-1.7l3.803.001zM65.772 71.014h1.775v-3.272h1.34l2.109 3.272h1.951l-2.245-3.49a2.016 2.016 0 0 0 1.518-2.109c0-1.661-1.081-2.461-3.037-2.461h-3.411v8.06zm1.775-6.49h1.454c.749 0 1.377.176 1.377.869 0 .693-.619.841-1.377.841h-1.454v-1.71zM65.949 50.076v4.822a3.308 3.308 0 1 0 6.617 0v-4.822h-1.733v4.753a1.585 1.585 0 1 1-3.16 0v-4.753h-1.724zM80.578 64.525v-1.568h-5.579v8.06h5.579v-1.572h-3.8v-1.658h3.5v-1.563h-3.5v-1.7l3.8.001zM80.574 50.072H74.18v1.571h2.308v6.507h1.778v-6.507h2.308v-1.571zM87.394 50.072l-1.818 3.022-1.712-3.022h-2.215l3.037 4.632v3.447h1.781v-3.447l3.036-4.632h-2.109zM78.74 44.386l2.69-2.69H65.276l2.69 2.69H78.74z"/>
        <path d="M51.811 79.395V41.693h13.466l-1.818-1.807A3.054 3.054 0 0 0 61.31 39H49.121v43.088h12.194c.805 0 1.578-.32 2.149-.887l1.818-1.806H51.811z"/>
        <path d="m67.968 76.699-2.69 2.69h16.158l-2.69-2.69H67.968z"/>
        <path d="M85.399 39c-.805 0-1.578.319-2.149.886l-1.818 1.806h13.465v37.7H81.435l1.818 1.806a3.053 3.053 0 0 0 2.149.886h12.193V39H85.399z"/>
    </g>
</svg>
